<svg id="Layer_1" data-name="Layer 1" xmlns="http://www.w3.org/2000/svg" viewBox="0 0 134.1 131.89"><defs><style>.cls-1{fill:#1d1d1b;}</style></defs><path class="cls-1" d="M67.16,72.41h.36c14.39,0,23.9-12.19,26.82-34.13.12-.61,2.44-15.61-6-26-4.63-5.73-11.7-8.9-20.72-9.26H67c-9.15.36-16.1,3.53-20.73,9.26-8.41,10.36-6,25.36-6,25.85C43.14,60.34,52.77,72.41,67.16,72.41ZM50.94,16.21c3.54-4.39,9-6.7,16.22-7.07h.12c7.19.37,12.68,2.68,16.21,7.07,6.71,8.17,4.64,21.09,4.64,21.21-1.47,10.85-6,28.9-20.73,28.9H67c-14.76,0-19.39-18.17-20.73-29C46.31,37.18,44.36,24.38,50.94,16.21Z"/><path class="cls-1" d="M131,126.66l-2.08-19v-.24c-2.56-14.39-18-17.92-18.77-18-42.3-7.68-42.3-7.68-42.54-7.68h-.49l-20.6,3.78a12.7,12.7,0,0,1,1.21,5.24v.73l20-3.66c4.87.86,41.32,7.56,41.32,7.56s12.07,2.68,14,13L124.82,124H10.71l1.71-15.61c1.34-7.68,8.29-11.09,11.83-12.43A12.56,12.56,0,0,1,23,90.7v-.86c-4.39,1.47-14.75,6-16.7,17.44v.24l-2.08,19A3,3,0,0,0,6.94,130H128.23a3,3,0,0,0,3.05-3C131.16,126.9,131.16,126.78,131,126.66Z"/></svg>