<svg id="Layer_1" data-name="Layer 1" xmlns="http://www.w3.org/2000/svg" viewBox="0 0 134.1 131.89"><defs><style>.cls-1{fill:#1d1d1b;}</style></defs><path class="cls-1" d="M67.69,1C33.77,1,5.82,28.19,4.24,62.58a12.59,12.59,0,0,1,6.1,0C12.05,30.3,39,5.47,70.74,7.21s56.13,29.17,54.43,61.45S96.49,125.77,64.76,124A57.67,57.67,0,0,1,13.63,85.42a12,12,0,0,1-5.86,1.86c11.72,33.65,48.08,51.28,81.15,39.36s50.4-48.92,38.69-82.56A63.53,63.53,0,0,0,67.69,1Z"/><path class="cls-1" d="M41.94,71.52V77.1h7.93c.13,8.07,2.32,14.28,6.59,18.75s10,6.58,17.33,6.58a43.69,43.69,0,0,0,10.62-1.37l-.86-7.32a28.61,28.61,0,0,1-9.64,1.49c-4.88,0-8.66-1.62-11.35-4.72s-4-7.7-4.14-13.53H75.5V71.39H58.42V65.18H75.5V59.47H58.42c.12-5.71,1.58-10,4.14-13.16s6.35-4.59,11.23-4.59a29.43,29.43,0,0,1,9.76,1.61L84.41,36a44.66,44.66,0,0,0-10.74-1.37c-7.2,0-12.94,2.11-17.08,6.46s-6.47,10.43-6.84,18.37H41.82v5.71h7.93v6.21l-7.81.13Z"/></svg>