<svg id="Layer_1" data-name="Layer 1" xmlns="http://www.w3.org/2000/svg" viewBox="0 0 134.1 131.89"><defs><style>.cls-1{fill:#1d1d1b;}</style></defs><path class="cls-1" d="M22.71,7.79a16,16,0,0,0-2.89,31.63v85.79a2.89,2.89,0,1,0,5.78,0V39.42A16,16,0,0,0,22.71,7.79Zm0,26.09a10.16,10.16,0,1,1,10-10.28v.12A9.94,9.94,0,0,1,22.71,33.88Z"/><path class="cls-1" d="M127.21,23.72a15.88,15.88,0,1,0-18.82,15.59V125.1a2.89,2.89,0,0,0,5.77,0V39.31A15.66,15.66,0,0,0,127.21,23.72ZM111.39,33.88a10.16,10.16,0,1,1,10-10.28v.12A10.07,10.07,0,0,1,111.39,33.88Z"/><path class="cls-1" d="M69.94,69.56V52.82a12.28,12.28,0,0,1-5.78,0V69.56a16,16,0,0,0,0,31.41v24.24a2.89,2.89,0,0,0,5.78,0V101a16,16,0,0,0,0-31.41ZM67.05,95.42a10.16,10.16,0,1,1,10-10.27v.11A9.92,9.92,0,0,1,67.05,95.42Z"/><path class="cls-1" d="M69.94,30.19V10.79a2.89,2.89,0,0,0-5.78,0v19.4A12,12,0,0,1,69.94,30.19Z"/></svg>